<svg xmlns="http://www.w3.org/2000/svg" xmlns:xlink="http://www.w3.org/1999/xlink" xmlns:lucid="lucid" width="1428.68" height="2009.18"><g transform="translate(-177.06461275032962 -48)" lucid:page-tab-id="0_0"><path d="M0 0h1829.64v2349.44H0z" fill="#fff"/><path d="M197.06 560.57a8 8 0 0 1 8-8h84a8 8 0 0 1 8 8v4.93a17.07 17.07 0 0 1-5 12.07 17.07 17.07 0 0 1-12.07 5h-74.94a8 8 0 0 1-8-8z" fill="#fff"/><path d="M297.06 552.57v20l-10 10h-90" stroke="#3a414a" fill="none"/><path d="M197.06 560.57a8 8 0 0 1 8-8h914.32a8 8 0 0 1 8 8v357.05a8 8 0 0 1-8 8H205.06a8 8 0 0 1-8-8zM197.06 739.1h20m15 0h20m15 0h20m15 0h20m15 0h20m15 0h20m15 0h20m15 0h20m15 0h20m15 0h20m15 0h20m15 0h20m15 0h20m15 0h20m15 0h20m15 0h20m15 0h20m15 0h20m15 0h20m15 0h20m15 0h20m15 0h20m15 0h20m15 0h20m15 0h20m15 0h20m15 0h20" stroke="#3a414a" fill="none"/><use xlink:href="#a" transform="matrix(1,0,0,1,205.06461275032962,552.5670073797926) translate(-1.4249999999999972 18.6)"/><use xlink:href="#b" transform="matrix(1,0,0,1,209.06461275032962,590.5670073797926) translate(10.549999999999997 14.4)"/><use xlink:href="#c" transform="matrix(1,0,0,1,209.06461275032962,590.5670073797926) translate(20.549999999999997 14.4)"/><use xlink:href="#d" transform="matrix(1,0,0,1,209.06461275032962,590.5670073797926) translate(34.5 14.4)"/><use xlink:href="#e" transform="matrix(1,0,0,1,209.06461275032962,590.5670073797926) translate(7.575000000000003 36)"/><use xlink:href="#f" transform="matrix(1,0,0,1,209.06461275032962,590.5670073797926) translate(25.525000000000002 36)"/><use xlink:href="#g" transform="matrix(1,0,0,1,209.06461275032962,590.5670073797926) translate(67.425 36)"/><use xlink:href="#b" transform="matrix(1,0,0,1,209.06461275032962,747.0948935763354) translate(13.524999999999999 18.6)"/><use xlink:href="#h" transform="matrix(1,0,0,1,209.06461275032962,747.0948935763354) translate(23.525 18.6)"/><use xlink:href="#g" transform="matrix(1,0,0,1,209.06461275032962,747.0948935763354) translate(61.475 18.6)"/><path d="M197.06 997.5a8 8 0 0 1 8-8h84a8 8 0 0 1 8 8v4.92a17.07 17.07 0 0 1-5 12.07 17.07 17.07 0 0 1-12.07 5h-74.94a8 8 0 0 1-8-8z" fill="#fff"/><path d="M297.06 989.5v20l-10 10h-90" stroke="#3a414a" fill="none"/><path d="M197.06 997.5a8 8 0 0 1 8-8h914.32a8 8 0 0 1 8 8v309.24a8 8 0 0 1-8 8H205.06a8 8 0 0 1-8-8zM197.06 1152.1h20m15 0h20m15 0h20m15 0h20m15 0h20m15 0h20m15 0h20m15 0h20m15 0h20m15 0h20m15 0h20m15 0h20m15 0h20m15 0h20m15 0h20m15 0h20m15 0h20m15 0h20m15 0h20m15 0h20m15 0h20m15 0h20m15 0h20m15 0h20m15 0h20m15 0h20m15 0h20" stroke="#3a414a" fill="none"/><use xlink:href="#a" transform="matrix(1,0,0,1,205.06461275032967,989.4872176146239) translate(-1.4249999999999972 18.6)"/><use xlink:href="#b" transform="matrix(1,0,0,1,209.06461275032967,1027.487217614624) translate(4.074999999999996 14.4)"/><use xlink:href="#c" transform="matrix(1,0,0,1,209.06461275032967,1027.487217614624) translate(14.074999999999996 14.4)"/><use xlink:href="#i" transform="matrix(1,0,0,1,209.06461275032967,1027.487217614624) translate(28.024999999999995 14.4)"/><use xlink:href="#j" transform="matrix(1,0,0,1,209.06461275032967,1027.487217614624) translate(62.975 14.4)"/><use xlink:href="#k" transform="matrix(1,0,0,1,209.06461275032967,1027.487217614624) translate(16.55 36)"/><use xlink:href="#g" transform="matrix(1,0,0,1,209.06461275032967,1027.487217614624) translate(58.45 36)"/><use xlink:href="#b" transform="matrix(1,0,0,1,209.06461275032967,1160.1134436499701) translate(13.524999999999999 18.6)"/><use xlink:href="#h" transform="matrix(1,0,0,1,209.06461275032967,1160.1134436499701) translate(23.525 18.6)"/><use xlink:href="#g" transform="matrix(1,0,0,1,209.06461275032967,1160.1134436499701) translate(61.475 18.6)"/><path d="M197.06 1464.16a8 8 0 0 1 8-8h84a8 8 0 0 1 8 8v4.93a17.07 17.07 0 0 1-5 12.06 17.07 17.07 0 0 1-12.07 5h-74.94a8 8 0 0 1-8-8z" fill="#fff"/><path d="M297.06 1456.16v20l-10 10h-90" stroke="#3a414a" fill="none"/><path d="M197.06 1464.16a8 8 0 0 1 8-8h1372.7a8 8 0 0 1 8 8v397.3a8 8 0 0 1-8 8H205.05a8 8 0 0 1-8-8zM197.06 1745h20m15 0h20m15 0h20m15 0h20m15 0h20m15 0h20m15 0h20m15 0h20m15 0h20m15 0h20m15 0h20m15 0h20m15 0h20m15 0h20m15 0h20m15 0h20m15 0h20m15 0h20m15 0h20m15 0h20m15 0h20m15 0h20m15 0h20m15 0h20m15 0h20m15 0h20m15 0h20m15 0h20m15 0h20m15 0h20m15 0h20m15 0h20m15 0h20m15 0h20m15 0h20m15 0h20m15 0h20m15 0h20m15 0h20m15 0h20" stroke="#3a414a" fill="none"/><use xlink:href="#a" transform="matrix(1,0,0,1,205.06461275032962,1456.161078991293) translate(-1.4249999999999972 18.6)"/><use xlink:href="#b" transform="matrix(1,0,0,1,209.06461275032962,1494.161078991293) translate(4.049999999999997 14.4)"/><use xlink:href="#c" transform="matrix(1,0,0,1,209.06461275032962,1494.161078991293) translate(14.049999999999997 14.4)"/><use xlink:href="#l" transform="matrix(1,0,0,1,209.06461275032962,1494.161078991293) translate(27.999999999999996 14.4)"/><use xlink:href="#m" transform="matrix(1,0,0,1,209.06461275032962,1494.161078991293) translate(77 14.4)"/><use xlink:href="#n" transform="matrix(1,0,0,1,209.06461275032962,1494.161078991293) translate(13.224999999999994 36)"/><use xlink:href="#g" transform="matrix(1,0,0,1,209.06461275032962,1494.161078991293) translate(88.775 36)"/><use xlink:href="#b" transform="matrix(1,0,0,1,209.06461275032962,1753) translate(13.524999999999999 18.6)"/><use xlink:href="#h" transform="matrix(1,0,0,1,209.06461275032962,1753) translate(23.525 18.6)"/><use xlink:href="#g" transform="matrix(1,0,0,1,209.06461275032962,1753) translate(61.475 18.6)"/><path d="M680.03 228a8 8 0 0 1 8-8H862.1a8 8 0 0 1 8 8v106a8 8 0 0 1-8 8H688.03a8 8 0 0 1-8-8z" stroke="#000" stroke-opacity="0" fill="#ffaf28"/><use xlink:href="#o" transform="matrix(1,0,0,1,688.0269431237921,228) translate(69.4506172839506 56.55555555555555)"/><path d="M452.4 181.75c0 10.9-8.84 19.75-19.75 19.75-10.9 0-19.75-8.84-19.75-19.75 0-10.9 8.84-19.75 19.75-19.75 10.9 0 19.75 8.84 19.75 19.75z" stroke="#333" fill="#fff"/><path d="M432.65 201.5v47.3a27.6 27.6 0 0 0 4.28 14.76L472.65 320m-40-63.2l-40 63.2m0-98.75h80" stroke="#333" fill="none"/><path d="M392.65 170a8 8 0 0 1 8-8h64a8 8 0 0 1 8 8v164a8 8 0 0 1-8 8h-64a8 8 0 0 1-8-8z" fill="none"/><use xlink:href="#p" transform="matrix(1,0,0,1,312.6496896262572,320) translate(81.55555555555554 14.555555555555555)"/><path d="M453.15 76a8 8 0 0 1 8-8h836.75a8 8 0 0 1 8 8v25.16a8 8 0 0 1-8 8H461.15a8 8 0 0 1-8-8z" stroke="#000" stroke-opacity="0" stroke-width="2" fill="#fff" fill-opacity="0"/><use xlink:href="#q" transform="matrix(1,0,0,1,457.14655278534315,72) translate(277.0353086419753 25.782777777777778)"/><use xlink:href="#r" transform="matrix(1,0,0,1,457.14655278534315,72) translate(338.94888888888886 25.782777777777778)"/><use xlink:href="#s" transform="matrix(1,0,0,1,457.14655278534315,72) translate(469.8414814814815 25.782777777777778)"/><path d="M725.02 107.8h318.26M725.04 107.8h-1.02M1043.26 107.8h1.02" stroke="#a9afb8" stroke-width="2" fill="none"/><path d="M453.15 117.16a8 8 0 0 1 8-8h837.7a8 8 0 0 1 8 8V120a8 8 0 0 1-8 8h-837.7a8 8 0 0 1-8-8z" stroke="#000" stroke-opacity="0" stroke-width="2" fill="#fff" fill-opacity="0"/><use xlink:href="#t" transform="matrix(1,0,0,1,457.1465527853436,113.15522395689881) translate(327.69137860082304 14.917037037037037)"/><use xlink:href="#u" transform="matrix(1,0,0,1,457.1465527853436,113.15522395689881) translate(415.6025925925926 14.917037037037037)"/><use xlink:href="#v" transform="matrix(1,0,0,1,457.1465527853436,113.15522395689881) translate(428.0520781893004 14.917037037037037)"/><use xlink:href="#w" transform="matrix(1,0,0,1,457.1465527853436,113.15522395689881) translate(465.443024691358 14.917037037037037)"/><use xlink:href="#x" transform="matrix(1,0,0,1,457.1465527853436,113.15522395689881) translate(490.9368518518519 14.917037037037037)"/><path d="M432.65 263.87v4.96m0 4.96v9.92m0 4.96v9.93m0 4.97v9.93m0 4.96v9.93m0 4.95v9.93m0 4.96v9.93m0 4.96v9.93m0 4.96v9.92m0 4.97v9.93m0 4.97v9.92m0 4.97v9.9m0 4.98v9.92m0 4.96v9.93m0 4.95v9.93m0 4.96v9.93m0 4.96v9.93m0 4.96v9.93m0 4.96v9.94m0 4.96v9.93m0 4.96v9.92m0 4.96v9.93m0 4.97v9.92m0 4.96v9.92m0 4.97v9.92m0 4.97v9.92m0 4.97v9.92m0 4.97v9.92m0 4.96v9.93m0 4.96v9.92m0 4.96v9.93m0 4.97v9.93m0 4.96v9.93m0 4.95v9.93m0 4.96v9.93m0 4.96v9.93m0 4.96v9.93m0 4.96v9.93m0 4.97v9.92m0 4.97v9.9m0 4.98v9.92m0 4.97v9.92m0 4.95v9.93m0 4.96v9.93m0 4.96v9.93m0 4.96v9.93m0 4.96v9.94m0 4.96v9.93m0 4.96v9.92m0 4.96v9.93m0 4.97v9.93m0 4.96v9.92m0 4.97v9.92m0 4.97v9.92m0 4.97v9.92m0 4.97v9.92m0 4.96v9.93m0 4.96v9.92m0 4.96v9.93m0 4.97v9.93m0 4.96v9.93m0 4.95v9.93m0 4.96v9.93m0 4.96v9.93m0 4.96v9.93m0 4.96v9.93m0 4.97v9.92m0 4.97v9.9m0 4.98v9.92m0 4.97v9.92m0 4.96v9.92m0 4.96v9.93m0 4.96v9.93m0 4.96v9.93m0 4.96v9.94m0 4.96v9.93m0 4.96v9.92m0 4.96v9.93m0 4.97v9.93m0 4.96v9.92m0 4.97v9.92m0 4.97v9.92m0 4.97v9.92m0 4.97v9.92m0 4.97v9.93m0 4.96v9.92m0 4.96v9.93m0 4.97v9.93m0 4.96v9.93m0 4.95v9.93m0 4.96v9.93m0 4.96v9.93m0 4.96v9.93m0 4.96v9.93m0 4.97v9.92m0 4.97v9.9m0 4.98v9.92m0 4.97v9.92m0 4.96v9.92m0 4.96v9.93m0 4.96v9.93m0 4.96v9.93m0 4.96v9.94m0 4.96v9.93m0 4.96v9.92m0 4.96v9.93m0 4.97v9.93m0 4.96v9.92m0 4.97v9.92m0 4.97v9.92m0 4.97v9.92m0 4.97v9.92m0 4.97v9.93m0 4.96v9.92m0 4.96v9.93m0 4.97v9.93m0 4.96v4.97M432.65 263.88v-.5M432.65 1991v3.53M775.06 342.45v5m0 5v9.98m0 5v10m0 5v9.98m0 5v10m0 5v9.98m0 5v10m0 4.98v10m0 5v9.98m0 5v10m0 5v9.98m0 5v9.98m0 5v10m0 5v9.98m0 5v10m0 4.98v10m0 5v9.98m0 5v10m0 4.98v10m0 5v9.98m0 5v10m0 4.98v10m0 5v9.98m0 5v10m0 4.98v10m0 5v9.98m0 5v10m0 5v9.98m0 5v9.98m0 5v10m0 5v9.98m0 5v10m0 4.98v10m0 5V842m0 5v10m0 4.98v10m0 5v9.98m0 5v10m0 4.98v10m0 5v9.98m0 5v10m0 4.98v10m0 5v9.98m0 5v10m0 5v9.98m0 5v9.98m0 5v10m0 5v9.98m0 5v9.98m0 5v10m0 5v9.98m0 5v10m0 4.98v10m0 5v9.98m0 5v10m0 4.98v10m0 5v9.98m0 5v10m0 4.98v10m0 5v9.98m0 5v10m0 5v9.98m0 5v9.98m0 5v10m0 5v9.98m0 5v9.98m0 5v10m0 5v9.98m0 5v10m0 4.98v10m0 5v9.98m0 5v10m0 4.98v10m0 5v9.98m0 5v10m0 4.98v10m0 5v9.98m0 5v10m0 4.98v10m0 5v9.98m0 5v10m0 5v9.98m0 5v9.98m0 5v10m0 5v9.98m0 5v10m0 4.98v10m0 5v9.98m0 5v10m0 4.98v10m0 5v9.98m0 5v10m0 4.98v10m0 5v9.98m0 5v10m0 4.98v10m0 5v9.98m0 5v10m0 5v9.98m0 5v9.98m0 5v10m0 5v9.98m0 5v9.98m0 5v10m0 5v9.98m0 5v10m0 4.98v10m0 5v9.98m0 5v10m0 4.98v10m0 5v5" stroke="#3a414a" fill="none"/><path d="M775.56 342.46h-1v-.5h1z" stroke="#3a414a" stroke-width=".05" fill="#3a414a"/><path d="M775.06 1991v3.53" stroke="#3a414a" fill="none"/><path d="M997.66 228a8 8 0 0 1 8-8h174.07a8 8 0 0 1 8 8v106a8 8 0 0 1-8 8h-174.07a8 8 0 0 1-8-8z" stroke="#000" stroke-opacity="0" fill="#ffaf28"/><use xlink:href="#y" transform="matrix(1,0,0,1,1005.6559751177907,228) translate(38.66049382716048 56.55555555555555)"/><use xlink:href="#z" transform="matrix(1,0,0,1,1005.6559751177907,228) translate(84.09259259259258 56.55555555555555)"/><path d="M1092.7 342.45v5m0 5v9.98m0 5v10m0 5v9.98m0 5v10m0 5v9.98m0 5v10m0 4.98v10m0 5v9.98m0 5v10m0 5v9.98m0 5v9.98m0 5v10m0 5v9.98m0 5v10m0 4.98v10m0 5v9.98m0 5v10m0 4.98v10m0 5v9.98m0 5v10m0 4.98v10m0 5v9.98m0 5v10m0 4.98v10m0 5v9.98m0 5v10m0 5v9.98m0 5v9.98m0 5v10m0 5v9.98m0 5v10m0 4.98v10m0 5V842m0 5v10m0 4.98v10m0 5v9.98m0 5v10m0 4.98v10m0 5v9.98m0 5v10m0 4.98v10m0 5v9.98m0 5v10m0 5v9.98m0 5v9.98m0 5v10m0 5v9.98m0 5v9.98m0 5v10m0 5v9.98m0 5v10m0 4.98v10m0 5v9.98m0 5v10m0 4.98v10m0 5v9.98m0 5v10m0 4.98v10m0 5v9.98m0 5v10m0 5v9.98m0 5v9.98m0 5v10m0 5v9.98m0 5v9.98m0 5v10m0 5v9.98m0 5v10m0 4.98v10m0 5v9.98m0 5v10m0 4.98v10m0 5v9.98m0 5v10m0 4.98v10m0 5v9.98m0 5v10m0 4.98v10m0 5v9.98m0 5v10m0 5v9.98m0 5v9.98m0 5v10m0 5v9.98m0 5v10m0 4.98v10m0 5v9.98m0 5v10m0 4.98v10m0 5v9.98m0 5v10m0 4.98v10m0 5v9.98m0 5v10m0 4.98v10m0 5v9.98m0 5v10m0 5v9.98m0 5v9.98m0 5v10m0 5v9.98m0 5v9.98m0 5v10m0 5v9.98m0 5v10m0 4.98v10m0 5v9.98m0 5v10m0 4.98v10m0 5v5" stroke="#3a414a" fill="none"/><path d="M1093.2 342.46h-1v-.5h1z" stroke="#3a414a" stroke-width=".05" fill="#3a414a"/><path d="M1092.7 1991v3.53" stroke="#3a414a" fill="none"/><path d="M1315.3 228a8 8 0 0 1 8-8h174.06a8 8 0 0 1 8 8v106a8 8 0 0 1-8 8H1323.3a8 8 0 0 1-8-8z" stroke="#000" stroke-opacity="0" fill="#ffaf28"/><use xlink:href="#y" transform="matrix(1,0,0,1,1323.2850071117891,228) translate(32.685185185185176 56.55555555555555)"/><use xlink:href="#A" transform="matrix(1,0,0,1,1323.2850071117891,228) translate(78.11728395061729 56.55555555555555)"/><path d="M1410.32 342.45v4.97m0 4.97v9.93m0 4.97v9.95m0 4.97v9.94m0 4.97v9.94m0 4.97v9.94m0 4.97v9.94m0 4.97v9.94m0 4.98v9.94m0 4.97v9.93m0 4.97v9.94m0 4.97v9.96m0 4.97v9.94m0 4.97v9.94m0 4.97v9.94m0 4.96v9.94m0 4.97v9.95m0 4.97v9.93m0 4.97v9.94m0 4.97v9.95m0 4.97v9.94m0 4.98v9.94m0 4.97v9.94m0 4.96v9.94m0 4.97v9.94m0 4.98v9.95m0 4.97v9.94m0 4.97v9.95m0 4.97v9.94m0 4.97v9.94m0 4.97v9.95m0 4.96v9.94m0 4.97v9.94m0 4.98v9.94m0 4.97v9.93m0 4.98v9.95m0 4.97v9.94m0 4.97v9.94m0 4.97v9.94m0 4.97V929m0 4.97v9.94m0 4.98v9.94m0 4.97v9.93m0 4.97v9.94m0 4.97v9.96m0 4.97v9.94m0 4.97v9.94m0 4.97v9.94m0 4.96v9.94m0 4.98v9.94m0 4.97v9.93m0 4.97v9.94m0 4.97v9.95m0 4.97v9.95m0 4.97v9.94m0 4.97v9.94m0 4.96v9.94m0 4.97v9.94m0 4.98v9.95m0 4.97v9.94m0 4.97v9.95m0 4.97v9.94m0 4.97v9.94m0 4.98v9.94m0 4.96v9.94m0 4.97v9.94m0 4.98v9.94m0 4.97v9.94m0 4.97v9.95m0 4.97v9.94m0 4.97v9.94m0 4.97v9.94m0 4.97v9.95m0 4.97v9.94m0 4.98v9.94m0 4.97v9.93m0 4.97v9.94m0 4.98v9.94m0 4.97v9.94m0 4.97v9.94m0 4.97v9.94m0 4.96v9.95m0 4.98v9.94m0 4.97v9.93m0 4.97v9.94m0 4.97v9.95m0 4.97v9.95m0 4.97v9.94m0 4.97v9.94m0 4.96v9.94m0 4.97v9.94m0 4.98v9.95m0 4.97v9.94m0 4.97v9.95m0 4.97v9.94m0 4.97v9.94m0 4.98v9.94m0 4.96v9.94m0 4.97v9.94m0 4.98v9.94m0 4.97v9.94m0 4.97v9.95m0 4.97v9.94m0 4.97v9.94m0 4.97v9.94m0 4.97v9.95m0 4.97v9.94m0 4.98v9.94m0 4.97v9.93m0 4.97v9.94m0 4.98v4.97" stroke="#3a414a" fill="none"/><path d="M1410.82 342.46h-1v-.5h1z" stroke="#3a414a" stroke-width=".05" fill="#3a414a"/><path d="M1410.32 1982.77v3.52" stroke="#3a414a" fill="none"/><path d="M738.18 490.2H433.15v-1h305.03z" stroke="#3a414a" stroke-width=".05" fill="#3a414a"/><path d="M433.16 490.2h-.5v-1h.5z" stroke="#3a414a" stroke-width=".05" fill="#3a414a"/><path d="M752.95 489.7l-14.27 4.63v-9.27z" fill="#3a414a"/><path d="M754.57 489.7l-16.4 5.32v-10.65zm-15.4 3.94l12.16-3.95-12.15-3.95z" stroke="#3a414a" stroke-width=".05" fill="#3a414a"/><use xlink:href="#B" transform="matrix(1,0,0,1,647.2088530560146,478.89482929446683) translate(0.005 14.4)"/><use xlink:href="#C" transform="matrix(1,0,0,1,549.1826500997831,464.09482929446693) translate(0.005000000000002558 14.4)"/><use xlink:href="#D" transform="matrix(1,0,0,1,549.1826500997831,464.09482929446693) translate(49.955000000000005 14.4)"/><path d="M775.56 499.3h280.25M775.58 499.3h-.52" stroke="#3a414a" fill="none"/><path d="M1070.57 499.3l-14.26 4.63v-9.27z" stroke="#3a414a" fill="#3a414a"/><use xlink:href="#E" transform="matrix(1,0,0,1,879.2292737075776,473.69576693263065) translate(0.005000000000002558 14.4)"/><use xlink:href="#D" transform="matrix(1,0,0,1,879.2292737075776,473.69576693263065) translate(49.905 14.4)"/><path d="M1092.2 671.74h-4.94m-4.94 0h-9.87m-4.94 0h-9.86m-4.94 0h-9.88m-4.93 0h-9.9m-4.92 0h-9.88m-4.93 0h-9.88m-4.94 0h-9.88m-4.94 0h-9.87m-4.94 0h-9.87m-4.94 0h-9.83m-4.9 0h-9.8m-4.9 0h-9.8m-4.9 0h-9.78m-4.9 0h-9.8m-4.9 0h-9.8m-4.88 0h-9.8m-4.9 0h-9.8m-4.9 0h-9.78m-4.9 0h-4.9M1092.18 671.74h.5" stroke="#3a414a" fill="none"/><path d="M797.1 671.74l14.26-4.64v9.27z" stroke="#3a414a" fill="#3a414a"/><use xlink:href="#F" transform="matrix(1,0,0,1,909.136472238114,646.1392389296292) translate(0.005000000000002558 14.4)"/><use xlink:href="#G" transform="matrix(1,0,0,1,909.136472238114,646.1392389296292) translate(43.90500000000001 14.4)"/><path d="M542.66 703.73h-93.63v-1h93.63zm211.42 0H644.56v-1h109.52z" stroke="#3a414a" stroke-width=".05" fill="#3a414a"/><path d="M754.58 703.73h-.5v-1h.5z" fill="#3a414a"/><path d="M754.6 703.76h-.56v-1.05h.56zm-.5-1v.95h.46v-.94z" stroke="#3a414a" stroke-width=".05" fill="#3a414a"/><path d="M448.53 707.87l-14.26-4.64 14.26-4.63z" fill="#3a414a"/><path d="M449.03 708.56l-16.38-5.33 16.38-5.32zm-13.14-5.33l12.13 3.95v-7.9z" stroke="#3a414a" stroke-width=".05" fill="#3a414a"/><use xlink:href="#H" transform="matrix(1,0,0,1,542.6648692092199,692.4322475813452) translate(0.005000000000002558 14.4)"/><use xlink:href="#I" transform="matrix(1,0,0,1,542.6648692092199,692.4322475813452) translate(71.95500000000001 14.4)"/><path d="M1092.2 831.36h-4.94m-4.94 0h-9.87m-4.94 0h-9.86m-4.94 0h-9.87m-4.94 0H1028m-4.94 0h-9.87m-4.93 0h-9.87m-4.94 0h-9.87m-4.95 0h-9.87m-4.94 0h-9.87m-4.94 0h-9.84m-4.9 0h-9.8m-4.9 0h-9.8m-4.88 0h-9.8m-4.9 0h-9.8m-4.9 0h-9.78m-4.9 0h-9.8m-4.9 0h-9.78m-4.9 0h-9.8m-4.9 0h-4.88M1092.18 831.36h.5" stroke="#3a414a" fill="none"/><path d="M797.1 831.36l14.28-4.64V836z" stroke="#3a414a" fill="#3a414a"/><use xlink:href="#F" transform="matrix(1,0,0,1,896.1918685721954,805.7599314925701) translate(0.005000000000002558 14.4)"/><use xlink:href="#J" transform="matrix(1,0,0,1,896.1918685721954,805.7599314925701) translate(43.90500000000001 14.4)"/><path d="M774.57 863.6v1l-128.8-1.23v-1zm-212.64-2.03v1l-112.9-1.07v-1z" stroke="#3a414a" stroke-width=".05" fill="#3a414a"/><path d="M775.07 863.6v1h-.52v-1z" stroke="#3a414a" stroke-width=".05" fill="#3a414a"/><path d="M448.5 865.63l-14.23-4.78 14.3-4.5z" fill="#3a414a"/><path d="M448.98 866.32l-16.33-5.48 16.43-5.17zm-13.1-5.45l12.12 4.06.07-7.9z" stroke="#3a414a" stroke-width=".05" fill="#3a414a"/><use xlink:href="#K" transform="matrix(1,0,0,1,561.9321637394014,851.6739152708336) translate(0.005000000000002558 14.4)"/><use xlink:href="#D" transform="matrix(1,0,0,1,561.9321637394014,851.6739152708336) translate(44.955000000000005 14.4)"/><path d="M438.23 1042.34h-5.08v-1h5.08zm15.26 0H443.3v-1h10.17zm15.24 0h-10.17v-1h10.17zm15.25 0h-10.17v-1H484zm15.25 0h-10.17v-1h10.17zm15.25 0h-10.17v-1h10.17zm12.98 0h-7.9v-1h7.9zm109.05 0h-10.17v-1h10.17zm15.25 0H641.6v-1h10.18zm15.26 0h-10.17v-1h10.17zm15.25 0H672.1v-1h10.17zm15.24 0h-10.17v-1h10.17zm15.26 0h-10.17v-1h10.17zm15.25 0h-10.17v-1h10.17zm10.17 0h-5.1v-1h5.1z" stroke="#3a414a" stroke-width=".05" fill="#3a414a"/><path d="M433.16 1042.34h-.5v-1h.5z" stroke="#3a414a" stroke-width=".05" fill="#3a414a"/><path d="M752.98 1041.84l-14.26 4.64v-9.27z" fill="#3a414a"/><path d="M754.6 1041.84l-16.38 5.33v-10.65zm-15.38 3.95l12.15-3.96-12.15-3.94z" stroke="#3a414a" stroke-width=".05" fill="#3a414a"/><use xlink:href="#L" transform="matrix(1,0,0,1,527.4832503015366,1031.0449547688704) translate(0.005000000000002558 14.4)"/><use xlink:href="#M" transform="matrix(1,0,0,1,527.4832503015366,1031.0449547688704) translate(34.955000000000005 14.4)"/><path d="M883.72 1074.84H775.56v-1h108.16zm172.13 0h-92.28v-1h92.28z" stroke="#3a414a" stroke-width=".05" fill="#3a414a"/><path d="M775.58 1074.84h-.52v-1h.52z" stroke="#3a414a" stroke-width=".05" fill="#3a414a"/><path d="M1070.62 1074.34l-14.27 4.63v-9.27z" fill="#3a414a"/><path d="M1072.23 1074.34l-16.38 5.32V1069zm-15.38 3.95l12.15-3.96-12.15-3.95z" stroke="#3a414a" stroke-width=".05" fill="#3a414a"/><use xlink:href="#E" transform="matrix(1,0,0,1,883.7245260135262,1063.5380968383804) translate(0.005000000000002558 14.4)"/><use xlink:href="#I" transform="matrix(1,0,0,1,883.7245260135262,1063.5380968383804) translate(49.905 14.4)"/><path d="M1092.2 1110h-4.92v-1h4.9zm-9.84 0h-9.84v-1h9.84zm-14.75 0h-9.83v-1h9.84zm-14.75 0h-9.83v-1h9.83zm-14.75 0h-9.83v-1h9.83zm-14.75 0h-9.84v-1h9.85zm-14.75 0h-9.84v-1h9.84zm-14.76 0H984v-1h9.84zm-80.2 0h-3.4v-1h3.4zm-8.3 0h-9.85v-1h9.83zm-14.77 0h-9.83v-1h9.83zm-14.75 0H866v-1h9.82zm-14.75 0h-9.84v-1h9.84zm-14.75 0h-9.84v-1h9.84zm-14.76 0h-9.83v-1h9.83zm-14.75 0h-4.9v-1h4.9zm162.3 0h-4.52v-1h4.5z" stroke="#3a414a" stroke-width=".05" fill="#3a414a"/><path d="M1092.7 1110h-.52v-1h.5z" stroke="#3a414a" stroke-width=".05" fill="#3a414a"/><path d="M811.4 1114.14l-14.27-4.63 14.26-4.63z" fill="#3a414a"/><path d="M811.9 1114.83l-16.4-5.32 16.4-5.32zm-13.15-5.32l12.14 3.95v-7.9z" stroke="#3a414a" stroke-width=".05" fill="#3a414a"/><use xlink:href="#L" transform="matrix(1,0,0,1,913.6262719670581,1098.7073511666179) translate(0.004999999999999005 14.4)"/><use xlink:href="#G" transform="matrix(1,0,0,1,913.6262719670581,1098.7073511666179) translate(34.955 14.4)"/><path d="M774.57 1136.33v1l-103.76-1.6v-1zm-237.66-3.66v1l-87.88-1.35.02-1z" stroke="#3a414a" stroke-width=".05" fill="#3a414a"/><path d="M775.07 1136.33v1h-.53l.02-1z" stroke="#3a414a" stroke-width=".05" fill="#3a414a"/><path d="M448.46 1136.44l-14.2-4.85 14.34-4.43z" fill="#3a414a"/><path d="M448.95 1137.14l-16.3-5.58 16.46-5.07zm-13.06-5.53l12.07 4.15.12-7.9z" stroke="#3a414a" stroke-width=".05" fill="#3a414a"/><use xlink:href="#H" transform="matrix(1,0,0,1,536.907125889573,1123.398723632746) translate(0.0049999999999954525 14.4)"/><use xlink:href="#N" transform="matrix(1,0,0,1,536.907125889573,1123.398723632746) translate(71.955 14.4)"/><path d="M1071.74 1214.83h-5.1m-5.1 0h-10.18m-5.1 0h-10.18m-5.1 0h-10.2m-5.08 0h-10.2m-5.1 0h-10.18m-5.1 0h-10.18m-5.1 0h-10.2m-5.08 0h-10.2m-5.1 0H929.1m-5.1 0H913.8m-5.1 0h-10.2m-5.08 0h-10.2m-5.1 0h-10.18m-5.1 0h-10.18m-5.1 0h-10.2m-5.08 0h-10.2m-5.1 0h-5.08" stroke="#3a414a" fill="none"/><path d="M1072.24 1215.33h-.5v-1h.5z" stroke="#3a414a" stroke-width=".05" fill="#3a414a"/><path d="M797.13 1214.83l14.27-4.63v9.27z" stroke="#3a414a" fill="#3a414a"/><use xlink:href="#L" transform="matrix(1,0,0,1,890.4552286804699,1189.2332576053363) translate(0.005000000000002558 14.4)"/><use xlink:href="#J" transform="matrix(1,0,0,1,890.4552286804699,1189.2332576053363) translate(34.955000000000005 14.4)"/><path d="M771.6 1272.72v1H644.3v-1zm-211.15 0v1H449.03v-1zM772.1 1272.72v1h-.5v-1z" stroke="#3a414a" stroke-width=".05" fill="#3a414a"/><path d="M448.53 1277.85l-14.26-4.63 14.26-4.64z" fill="#3a414a"/><path d="M449.03 1278.54l-16.38-5.32 16.38-5.33zm-13.14-5.32l12.13 3.94v-7.9z" stroke="#3a414a" stroke-width=".05" fill="#3a414a"/><use xlink:href="#K" transform="matrix(1,0,0,1,560.4535501265893,1262.4168202239712) translate(0.005000000000002558 14.4)"/><use xlink:href="#D" transform="matrix(1,0,0,1,560.4535501265893,1262.4168202239712) translate(44.955000000000005 14.4)"/><path d="M775.56 1422.28H1055.86M775.58 1422.28h-.52" stroke="#3a414a" fill="none"/><path d="M1070.64 1422.28l-14.27 4.64v-9.27z" stroke="#3a414a" fill="#3a414a"/><use xlink:href="#O" transform="matrix(1,0,0,1,855.5867802376374,1396.6830321543503) translate(0.0049999999999954525 14.4)"/><use xlink:href="#P" transform="matrix(1,0,0,1,855.5867802376374,1396.6830321543503) translate(42.955 14.4)"/><path d="M1093.2 1436.92h280.24M1093.2 1436.92h-.5" stroke="#3a414a" fill="none"/><path d="M1388.2 1436.92l-14.26 4.63v-9.27z" stroke="#3a414a" fill="#3a414a"/><use xlink:href="#Q" transform="matrix(1,0,0,1,1172.009249919749,1411.315190716056) translate(0.0049999999999954525 14.4)"/><use xlink:href="#R" transform="matrix(1,0,0,1,1172.009249919749,1411.315190716056) translate(78.555 14.4)"/><path d="M1092.2 1691.94h-4.94v-1h4.93zm-9.88 0h-9.87v-1h9.87zm-14.8 0h-9.88v-1h9.87zm-14.8 0h-9.88v-1h9.87zm-201.17 0h-.45v-1h.45zm-5.35 0h-9.8v-1h9.8zm-14.68 0h-9.8v-1h9.8zm-14.7 0h-4.9v-1h4.9zm221.08 0h-1.2v-1h1.2z" stroke="#3a414a" stroke-width=".05" fill="#3a414a"/><path d="M1092.7 1691.94h-.52v-1h.5z" stroke="#3a414a" stroke-width=".05" fill="#3a414a"/><path d="M811.43 1696.08l-14.26-4.64 14.26-4.64z" fill="#3a414a"/><path d="M811.93 1696.76l-16.38-5.32 16.38-5.32zm-13.14-5.32l12.13 3.95v-7.9z" stroke="#3a414a" stroke-width=".05" fill="#3a414a"/><use xlink:href="#S" transform="matrix(1,0,0,1,851.5459455130024,1680.6398486946819) translate(0.0049999999999954525 14.4)"/><use xlink:href="#T" transform="matrix(1,0,0,1,851.5459455130024,1680.6398486946819) translate(98.205 14.4)"/><path d="M433.28 1359.7h4.86m4.86 0h9.73m4.86 0h9.7m4.87 0h9.72m4.85 0h9.73m4.86 0h9.72m4.86 0h9.72m4.87 0h9.73m4.86 0h9.7m4.87 0h9.73m4.86 0h9.72m4.86 0h9.68m4.82 0h9.63m4.82 0h9.63m4.82 0h9.63m4.82 0h9.64m4.8 0h9.65m4.8 0h9.64m4.82 0h9.64m4.8 0h9.65m4.82 0h9.63m4.82 0h4.82M433.3 1359.7h-.52" stroke="#3a414a" fill="none"/><path d="M753 1359.7l-14.26 4.64v-9.27z" stroke="#3a414a" fill="#3a414a"/><use xlink:href="#U" transform="matrix(1,0,0,1,528.7524910233292,1334.1047933861537) translate(0.0049999999999954525 14.4)"/><use xlink:href="#M" transform="matrix(1,0,0,1,528.7524910233292,1334.1047933861537) translate(66.955 14.4)"/><path d="M774.56 1711.6v1H664.78v-1zm-231.63 0v1h-93.9v-1zM775.06 1712.6h-.5v-1h.5z" stroke="#3a414a" stroke-width=".05" fill="#3a414a"/><path d="M448.53 1716.74l-14.26-4.64 14.26-4.63z" fill="#3a414a"/><path d="M449.03 1717.43l-16.38-5.33 16.38-5.32zm-13.14-5.33l12.13 3.95v-7.9z" stroke="#3a414a" stroke-width=".05" fill="#3a414a"/><g><use xlink:href="#V" transform="matrix(1,0,0,1,542.9321259074864,1701.3041796486757) translate(0.005000000000002558 14.4)"/><use xlink:href="#W" transform="matrix(1,0,0,1,542.9321259074864,1701.3041796486757) translate(79.905 14.4)"/></g><path d="M1409.72 1492.6h-4.94m-4.93 0h-9.87m-4.93 0h-9.87m-4.94 0h-9.86m-4.94 0h-9.87m-4.93 0h-9.87m-4.93 0h-9.87m-4.94 0h-9.86m-4.94 0h-9.87m-4.93 0h-9.87m-4.93 0h-9.84m-4.9 0h-9.8m-4.88 0h-9.8m-4.88 0h-9.8m-4.88 0h-9.8m-4.9 0h-9.77m-4.9 0h-9.8m-4.9 0h-9.78m-4.9 0h-9.78m-4.9 0h-4.9M1409.7 1492.6h.52" stroke="#3a414a" fill="none"/><path d="M1114.78 1492.6l14.27-4.64v9.27z" stroke="#3a414a" fill="#3a414a"/><g><use xlink:href="#X" transform="matrix(1,0,0,1,1221.2164390318835,1466.9995610968983) translate(0.005000000000002558 14.4)"/><use xlink:href="#G" transform="matrix(1,0,0,1,1221.2164390318835,1466.9995610968983) translate(54.955000000000005 14.4)"/></g><path d="M1170.35 1564.68h-77.26v-1h77.25zm203.12 0h-61.37v-1h61.37z" stroke="#3a414a" stroke-width=".05" fill="#3a414a"/><path d="M1093.1 1564.68h-.5v-1h.5z" stroke="#3a414a" stroke-width=".05" fill="#3a414a"/><path d="M1388.23 1564.18l-14.26 4.63v-9.26z" fill="#3a414a"/><path d="M1389.85 1564.18l-16.38 5.32v-10.65zm-15.38 3.94l12.15-3.94-12.15-3.95z" stroke="#3a414a" stroke-width=".05" fill="#3a414a"/><g><use xlink:href="#Y" transform="matrix(1,0,0,1,1170.3450729534725,1553.377403061785) translate(0.0049999999999954525 14.4)"/><use xlink:href="#N" transform="matrix(1,0,0,1,1170.3450729534725,1553.377403061785) translate(79.80499999999999 14.4)"/></g><path d="M1409.72 1623.3h-4.94v-1h4.94zm-9.87 0h-9.87v-1h9.87zm-14.8 0h-9.87v-1h9.87zm-14.8 0h-9.87v-1h9.87zm-14.8 0h-9.88v-1h9.87zm-177.13 0h-9.6v-1h9.6zm-14.5 0h-9.8v-1h9.8zm-14.68 0h-9.8v-1h9.8zm-14.7 0h-4.88v-1h4.9z" stroke="#3a414a" stroke-width=".05" fill="#3a414a"/><path d="M1410.22 1623.3h-.52v-1h.52z" stroke="#3a414a" stroke-width=".05" fill="#3a414a"/><path d="M1129.06 1627.43l-14.27-4.64 14.26-4.64z" fill="#3a414a"/><path d="M1129.56 1628.1l-16.38-5.3 16.38-5.33zm-13.15-5.3l12.16 3.94v-7.9z" stroke="#3a414a" stroke-width=".05" fill="#3a414a"/><g><use xlink:href="#Y" transform="matrix(1,0,0,1,1178.32102420485,1611.9905898358923) translate(0.0049999999999954525 14.4)"/><use xlink:href="#T" transform="matrix(1,0,0,1,1178.32102420485,1611.9905898358923) translate(79.80499999999999 14.4)"/></g><path d="M1409.82 1801.64h-4.93m-4.95 0h-9.87m-4.94 0h-9.87m-4.93 0h-9.87m-4.94 0h-9.87m-4.94 0h-9.87m-4.93 0h-9.87m-4.94 0h-9.86m-4.94 0h-9.87m-4.93 0h-9.87m-4.94 0H1256.84m-4.9 0h-9.78m-4.9 0h-9.78m-4.9 0h-9.8m-4.9 0h-9.8m-4.88 0h-9.8m-4.9 0h-9.78m-4.9 0h-9.8m-4.9 0h-9.78m-4.9 0h-4.9M1409.8 1801.64h.52" stroke="#3a414a" fill="none"/><path d="M1114.8 1801.64l14.27-4.63v9.28z" stroke="#3a414a" fill="#3a414a"/><g><use xlink:href="#Z" transform="matrix(1,0,0,1,1191.504927880159,1776.042027166306) translate(0.0049999999999954525 14.4)"/><use xlink:href="#aa" transform="matrix(1,0,0,1,1191.504927880159,1776.042027166306) translate(90.555 14.4)"/></g><path d="M1092.2 1841.15h-4.94v-1h4.93zm-9.88 0h-9.87v-1h9.87zm-14.8 0h-9.88v-1h9.88zm-225.94 0h-5.16v-1h5.16zm-10.05 0h-9.8v-1h9.8zm-14.7 0h-4.9v-1h4.9zm235.88 0h-6.02v-1h6.03z" stroke="#3a414a" stroke-width=".05" fill="#3a414a"/><path d="M1092.7 1841.15h-.52v-1h.5z" stroke="#3a414a" stroke-width=".05" fill="#3a414a"/><path d="M811.44 1845.3l-14.26-4.65 14.26-4.63z" fill="#3a414a"/><path d="M811.94 1845.98l-16.38-5.33 16.38-5.32zm-13.14-5.33l12.14 3.95v-7.9z" stroke="#3a414a" stroke-width=".05" fill="#3a414a"/><g><use xlink:href="#S" transform="matrix(1,0,0,1,841.5759900160378,1829.8535660095702) translate(0.0049999999999954525 14.4)"/><use xlink:href="#ab" transform="matrix(1,0,0,1,841.5759900160378,1829.8535660095702) translate(98.205 14.4)"/></g><path d="M774.56 1921.32v1H645.78v-1zm-212.63 0v1h-112.9v-1zM775.06 1922.32h-.5v-1h.5z" stroke="#3a414a" stroke-width=".05" fill="#3a414a"/><path d="M448.53 1926.46l-14.26-4.64 14.26-4.63z" fill="#3a414a"/><path d="M449.03 1927.14l-16.38-5.32 16.38-5.32zm-13.14-5.32l12.13 3.95v-7.9z" stroke="#3a414a" stroke-width=".05" fill="#3a414a"/><g><use xlink:href="#K" transform="matrix(1,0,0,1,561.9321259074864,1911.0216621028148) translate(0.005000000000002558 14.4)"/><use xlink:href="#D" transform="matrix(1,0,0,1,561.9321259074864,1911.0216621028148) translate(44.955000000000005 14.4)"/></g><path d="M392.65 1965.18a8 8 0 0 1 8-8h64a8 8 0 0 1 8 8v64a8 8 0 0 1-8 8h-64a8 8 0 0 1-8-8z" fill="none"/><path d="M400.65 1965.18l64 64m0-64l-64 64" stroke="#3a414a" stroke-width="8" fill="none"/><path d="M735.06 1965.18a8 8 0 0 1 8-8h64a8 8 0 0 1 8 8v64a8 8 0 0 1-8 8h-64a8 8 0 0 1-8-8z" fill="none"/><path d="M743.06 1965.18l64 64m0-64l-64 64" stroke="#3a414a" stroke-width="8" fill="none"/><path d="M1052.7 1965.18a8 8 0 0 1 8-8h64a8 8 0 0 1 8 8v64a8 8 0 0 1-8 8h-64a8 8 0 0 1-8-8z" fill="none"/><path d="M1060.7 1965.18l64 64m0-64l-64 64" stroke="#3a414a" stroke-width="8" fill="none"/><path d="M1370.32 1956.94a8 8 0 0 1 8-8h64a8 8 0 0 1 8 8v64a8 8 0 0 1-8 8h-64a8 8 0 0 1-8-8z" fill="none"/><path d="M1378.32 1956.94l64 64m0-64l-64 64" stroke="#3a414a" stroke-width="8" fill="none"/><path d="M1072.7 493.74a8 8 0 0 1 8-8h24a8 8 0 0 1 8 8V1892a8 8 0 0 1-8 8h-24a8 8 0 0 1-8-8z" stroke="#3a414a" fill="#ffdda6"/><path d="M1390.32 1426.1a8 8 0 0 1 8-8h24a8 8 0 0 1 8 8V1892a8 8 0 0 1-8 8h-24a8 8 0 0 1-8-8z" stroke="#3a414a" fill="#e3fae3"/><path d="M755.06 475.3a8 8 0 0 1 8-8h24a8 8 0 0 1 8 8V1932a8 8 0 0 1-8 8h-24a8 8 0 0 1-8-8z" stroke="#3a414a" fill="#ffdda6"/><defs><path fill="#3a414a" d="M205 0l-28-72H64L36 0H1l101-248h38L239 0h-34zm-38-99l-47-123c-12 45-31 82-46 123h93" id="ac"/><path fill="#3a414a" d="M24 0v-261h32V0H24" id="ad"/><path fill="#3a414a" d="M59-47c-2 24 18 29 38 22v24C64 9 27 4 27-40v-127H5v-23h24l9-43h21v43h35v23H59v120" id="ae"/><path fill="#3a414a" d="M100-194c63 0 86 42 84 106H49c0 40 14 67 53 68 26 1 43-12 49-29l28 8c-11 28-37 45-77 45C44 4 14-33 15-96c1-61 26-98 85-98zm52 81c6-60-76-77-97-28-3 7-6 17-6 28h103" id="af"/><path fill="#3a414a" d="M114-163C36-179 61-72 57 0H25l-1-190h30c1 12-1 29 2 39 6-27 23-49 58-41v29" id="ag"/><path fill="#3a414a" d="M117-194c89-4 53 116 60 194h-32v-121c0-31-8-49-39-48C34-167 62-67 57 0H25l-1-190h30c1 10-1 24 2 32 11-22 29-35 61-36" id="ah"/><path fill="#3a414a" d="M141-36C126-15 110 5 73 4 37 3 15-17 15-53c-1-64 63-63 125-63 3-35-9-54-41-54-24 1-41 7-42 31l-33-3c5-37 33-52 76-52 45 0 72 20 72 64v82c-1 20 7 32 28 27v20c-31 9-61-2-59-35zM48-53c0 20 12 33 32 33 41-3 63-29 60-74-43 2-92-5-92 41" id="ai"/><path fill="#3a414a" d="M24-231v-30h32v30H24zM24 0v-190h32V0H24" id="aj"/><path fill="#3a414a" d="M108 0H70L1-190h34L89-25l56-165h34" id="ak"/><g id="a"><use transform="matrix(0.05,0,0,0.05,0,0)" xlink:href="#ac"/><use transform="matrix(0.05,0,0,0.05,12,0)" xlink:href="#ad"/><use transform="matrix(0.05,0,0,0.05,15.949999999999998,0)" xlink:href="#ae"/><use transform="matrix(0.05,0,0,0.05,20.95,0)" xlink:href="#af"/><use transform="matrix(0.05,0,0,0.05,30.950000000000003,0)" xlink:href="#ag"/><use transform="matrix(0.05,0,0,0.05,36.9,0)" xlink:href="#ah"/><use transform="matrix(0.05,0,0,0.05,46.9,0)" xlink:href="#ai"/><use transform="matrix(0.05,0,0,0.05,56.900000000000006,0)" xlink:href="#ae"/><use transform="matrix(0.05,0,0,0.05,61.900000000000006,0)" xlink:href="#aj"/><use transform="matrix(0.05,0,0,0.05,65.85,0)" xlink:href="#ak"/><use transform="matrix(0.05,0,0,0.05,74.85,0)" xlink:href="#af"/></g><path fill="#3a414a" d="M26 75v-336h71v23H56V52h41v23H26" id="al"/><use transform="matrix(0.05,0,0,0.05,0,0)" xlink:href="#al" id="b"/><path fill="#3a414a" d="M101-234c-31-9-42 10-38 44h38v23H63V0H32v-167H5v-23h27c-7-52 17-82 69-68v24" id="am"/><g id="c"><use transform="matrix(0.05,0,0,0.05,0,0)" xlink:href="#aj"/><use transform="matrix(0.05,0,0,0.05,3.95,0)" xlink:href="#am"/></g><path fill="#3a414a" d="M96-169c-40 0-48 33-48 73s9 75 48 75c24 0 41-14 43-38l32 2c-6 37-31 61-74 61-59 0-76-41-82-99-10-93 101-131 147-64 4 7 5 14 7 22l-32 3c-4-21-16-35-41-35" id="an"/><path fill="#3a414a" d="M85-194c31 0 48 13 60 33l-1-100h32l1 261h-30c-2-10 0-23-3-31C134-8 116 4 85 4 32 4 16-35 15-94c0-66 23-100 70-100zm9 24c-40 0-46 34-46 75 0 40 6 74 45 74 42 0 51-32 51-76 0-42-9-74-50-73" id="ao"/><g id="d"><use transform="matrix(0.05,0,0,0.05,0,0)" xlink:href="#an"/><use transform="matrix(0.05,0,0,0.05,9,0)" xlink:href="#ai"/><use transform="matrix(0.05,0,0,0.05,19,0)" xlink:href="#ag"/><use transform="matrix(0.05,0,0,0.05,24.95,0)" xlink:href="#ao"/></g><path fill="#3a414a" d="M135-143c-3-34-86-38-87 0 15 53 115 12 119 90S17 21 10-45l28-5c4 36 97 45 98 0-10-56-113-15-118-90-4-57 82-63 122-42 12 7 21 19 24 35" id="ap"/><g id="e"><use transform="matrix(0.05,0,0,0.05,0,0)" xlink:href="#aj"/><use transform="matrix(0.05,0,0,0.05,3.95,0)" xlink:href="#ap"/></g><g id="f"><use transform="matrix(0.05,0,0,0.05,0,0)" xlink:href="#ak"/><use transform="matrix(0.05,0,0,0.05,9,0)" xlink:href="#ai"/><use transform="matrix(0.05,0,0,0.05,19,0)" xlink:href="#ad"/><use transform="matrix(0.05,0,0,0.05,22.95,0)" xlink:href="#aj"/><use transform="matrix(0.05,0,0,0.05,26.899999999999995,0)" xlink:href="#ao"/></g><path fill="#3a414a" d="M3 75V52h41v-290H3v-23h71V75H3" id="aq"/><use transform="matrix(0.05,0,0,0.05,0,0)" xlink:href="#aq" id="g"/><g id="h"><use transform="matrix(0.05,0,0,0.05,0,0)" xlink:href="#af"/><use transform="matrix(0.05,0,0,0.05,10,0)" xlink:href="#ad"/><use transform="matrix(0.05,0,0,0.05,13.949999999999998,0)" xlink:href="#ap"/><use transform="matrix(0.05,0,0,0.05,22.95,0)" xlink:href="#af"/></g><path fill="#3a414a" d="M30-248c87 1 191-15 191 75 0 78-77 80-158 76V0H30v-248zm33 125c57 0 124 11 124-50 0-59-68-47-124-48v98" id="ar"/><path fill="#3a414a" d="M33 0v-248h34V0H33" id="as"/><path fill="#3a414a" d="M190 0L58-211 59 0H30v-248h39L202-35l-2-213h31V0h-41" id="at"/><g id="i"><use transform="matrix(0.05,0,0,0.05,0,0)" xlink:href="#ar"/><use transform="matrix(0.05,0,0,0.05,12,0)" xlink:href="#as"/><use transform="matrix(0.05,0,0,0.05,17,0)" xlink:href="#at"/></g><g id="j"><use transform="matrix(0.05,0,0,0.05,0,0)" xlink:href="#aj"/><use transform="matrix(0.05,0,0,0.05,3.95,0)" xlink:href="#ap"/></g><g id="k"><use transform="matrix(0.05,0,0,0.05,0,0)" xlink:href="#ak"/><use transform="matrix(0.05,0,0,0.05,9,0)" xlink:href="#ai"/><use transform="matrix(0.05,0,0,0.05,19,0)" xlink:href="#ad"/><use transform="matrix(0.05,0,0,0.05,22.95,0)" xlink:href="#aj"/><use transform="matrix(0.05,0,0,0.05,26.899999999999995,0)" xlink:href="#ao"/></g><path fill="#3a414a" d="M84 4C-5 8 30-112 23-190h32v120c0 31 7 50 39 49 72-2 45-101 50-169h31l1 190h-30c-1-10 1-25-2-33-11 22-28 36-60 37" id="au"/><g id="l"><use transform="matrix(0.05,0,0,0.05,0,0)" xlink:href="#am"/><use transform="matrix(0.05,0,0,0.05,5,0)" xlink:href="#au"/><use transform="matrix(0.05,0,0,0.05,15,0)" xlink:href="#ah"/><use transform="matrix(0.05,0,0,0.05,25,0)" xlink:href="#ao"/><use transform="matrix(0.05,0,0,0.05,35,0)" xlink:href="#ap"/></g><g id="m"><use transform="matrix(0.05,0,0,0.05,0,0)" xlink:href="#ai"/><use transform="matrix(0.05,0,0,0.05,10,0)" xlink:href="#ag"/><use transform="matrix(0.05,0,0,0.05,15.949999999999998,0)" xlink:href="#af"/></g><g id="n"><use transform="matrix(0.05,0,0,0.05,0,0)" xlink:href="#ap"/><use transform="matrix(0.05,0,0,0.05,9,0)" xlink:href="#au"/><use transform="matrix(0.05,0,0,0.05,19,0)" xlink:href="#am"/><use transform="matrix(0.05,0,0,0.05,23.65,0)" xlink:href="#am"/><use transform="matrix(0.05,0,0,0.05,28.649999999999995,0)" xlink:href="#aj"/><use transform="matrix(0.05,0,0,0.05,32.6,0)" xlink:href="#an"/><use transform="matrix(0.05,0,0,0.05,41.6,0)" xlink:href="#aj"/><use transform="matrix(0.05,0,0,0.05,45.550000000000004,0)" xlink:href="#af"/><use transform="matrix(0.05,0,0,0.05,55.550000000000004,0)" xlink:href="#ah"/><use transform="matrix(0.05,0,0,0.05,65.55000000000001,0)" xlink:href="#ae"/></g><path fill="#333" d="M187 0l-14-72H61L19 0h-37l149-248h38L221 0h-34zm-19-99l-22-123L76-99h92" id="av"/><path fill="#333" d="M151-220L108 0H75l42-220H32l6-28h203l-5 28h-85" id="aw"/><path fill="#333" d="M222 0l43-216c-8 16-17 34-26 49L143 0h-22L81-216 41 0H11l48-248h42l38 208 116-208h45L252 0h-30" id="ax"/><g id="o"><use transform="matrix(0.04938271604938272,0,0,0.04938271604938272,0,0)" xlink:href="#av"/><use transform="matrix(0.04938271604938272,0,0,0.04938271604938272,10.518518518518519,0)" xlink:href="#aw"/><use transform="matrix(0.04938271604938272,0,0,0.04938271604938272,21.333333333333336,0)" xlink:href="#ax"/><path fill="#333" d="M-.9 1.23H37v1.3H-.9z"/></g><path fill="#333" d="M125-24c46 0 70-25 89-51l25 16C214-24 183 4 123 4 8 4-5-146 60-208c32-50 158-61 191-5 5 7 9 14 11 22l-32 10c-9-28-33-43-69-43-74 0-108 51-108 125 0 46 24 75 72 75" id="ay"/><path fill="#333" d="M67 3c-93-2-31-127-26-193h32L48-50c-3 39 53 32 70 12 30-34 30-101 43-152h32L157 0h-30c1-10 6-24 4-33-14 20-29 37-64 36" id="az"/><path fill="#333" d="M55-144c13 50 104 24 104 88C159 21 15 23 1-39l26-10c6 40 102 42 102-4-13-50-104-23-104-87 0-71 143-71 148-8l-29 4c-5-35-85-37-89 0" id="aA"/><path fill="#333" d="M51-54c-9 22 5 41 31 30L79-1C43 14 10-4 19-52l22-115H19l5-23h22l19-43h21l-9 43h35l-4 23H73" id="aB"/><path fill="#333" d="M30-147c31-64 166-65 159 27C183-49 158 1 86 4 9 8 1-88 30-147zM88-20c53 0 68-48 68-100 0-31-11-51-44-50-52 1-68 46-68 97 0 32 13 53 44 53" id="aC"/><path fill="#333" d="M248-111c6-24 9-61-24-58-72 9-57 108-77 169h-31l26-142c3-37-50-30-64-10C52-115 50-51 37 0H6l36-190h30c-1 10-6 24-4 32 13-43 101-52 105 5 13-22 29-41 61-41 90 0 28 129 23 194h-31" id="aD"/><path fill="#333" d="M111-194c62-3 86 47 72 106H45c-7 38 6 69 45 68 27-1 43-14 53-32l24 11C152-15 129 4 87 4 38 3 12-23 12-71c0-70 32-119 99-123zm44 81c14-66-71-72-95-28-4 8-8 17-11 28h106" id="aE"/><path fill="#333" d="M66-151c12-25 30-51 66-40l-6 26C45-176 58-65 38 0H6l36-190h30" id="aF"/><g id="p"><use transform="matrix(0.04938271604938272,0,0,0.04938271604938272,0,0)" xlink:href="#ay"/><use transform="matrix(0.04938271604938272,0,0,0.04938271604938272,12.790123456790125,0)" xlink:href="#az"/><use transform="matrix(0.04938271604938272,0,0,0.04938271604938272,22.66666666666667,0)" xlink:href="#aA"/><use transform="matrix(0.04938271604938272,0,0,0.04938271604938272,31.555555555555557,0)" xlink:href="#aB"/><use transform="matrix(0.04938271604938272,0,0,0.04938271604938272,36.49382716049384,0)" xlink:href="#aC"/><use transform="matrix(0.04938271604938272,0,0,0.04938271604938272,46.37037037037038,0)" xlink:href="#aD"/><use transform="matrix(0.04938271604938272,0,0,0.04938271604938272,61.13580246913581,0)" xlink:href="#aE"/><use transform="matrix(0.04938271604938272,0,0,0.04938271604938272,71.01234567901236,0)" xlink:href="#aF"/></g><path fill="#a9afb8" d="M199 0l-22-63H83L61 0H9l90-248h61L250 0h-51zm-33-102l-36-108c-10 38-24 72-36 108h72" id="aG"/><path fill="#a9afb8" d="M136-208V0H84v-208H4v-40h212v40h-80" id="aH"/><path fill="#a9afb8" d="M230 0l2-204L168 0h-37L68-204 70 0H24v-248h70l56 185 57-185h69V0h-46" id="aI"/><g id="q"><use transform="matrix(0.0728395061728395,0,0,0.0728395061728395,0,0)" xlink:href="#aG"/><use transform="matrix(0.0728395061728395,0,0,0.0728395061728395,16.898765432098767,0)" xlink:href="#aH"/><use transform="matrix(0.0728395061728395,0,0,0.0728395061728395,32.85061728395062,0)" xlink:href="#aI"/></g><path fill="#a9afb8" d="M169-182c-1-43-94-46-97-3 18 66 151 10 154 114 3 95-165 93-204 36-6-8-10-19-12-30l50-8c3 46 112 56 116 5-17-69-150-10-154-114-4-87 153-88 188-35 5 8 8 18 10 28" id="aJ"/><path fill="#a9afb8" d="M185-48c-13 30-37 53-82 52C43 2 14-33 14-96s30-98 90-98c62 0 83 45 84 108H66c0 31 8 55 39 56 18 0 30-7 34-22zm-45-69c5-46-57-63-70-21-2 6-4 13-4 21h74" id="aK"/><path fill="#a9afb8" d="M84 4C32 4 15-41 15-95c0-55 18-99 73-99 29 0 47 12 58 34l2-30h48l-1 265h-49V-32C136-9 114 4 84 4zm21-34c32 0 41-29 41-66 0-36-9-64-40-64-33 0-39 30-40 65 0 43 13 65 39 65" id="aL"/><path fill="#a9afb8" d="M85 4C-2 5 27-109 22-190h50c7 57-23 150 33 157 60-5 35-97 40-157h50l1 190h-47c-2-12 1-28-3-38-12 25-28 42-61 42" id="aM"/><path fill="#a9afb8" d="M135-194c87-1 58 113 63 194h-50c-7-57 23-157-34-157-59 0-34 97-39 157H25l-1-190h47c2 12-1 28 3 38 12-26 28-41 61-42" id="aN"/><path fill="#a9afb8" d="M190-63c-7 42-38 67-86 67-59 0-84-38-90-98-12-110 154-137 174-36l-49 2c-2-19-15-32-35-32-30 0-35 28-38 64-6 74 65 87 74 30" id="aO"/><g id="r"><use transform="matrix(0.0728395061728395,0,0,0.0728395061728395,0,0)" xlink:href="#aJ"/><use transform="matrix(0.0728395061728395,0,0,0.0728395061728395,17.48148148148148,0)" xlink:href="#aK"/><use transform="matrix(0.0728395061728395,0,0,0.0728395061728395,32.04938271604938,0)" xlink:href="#aL"/><use transform="matrix(0.0728395061728395,0,0,0.0728395061728395,48.00123456790123,0)" xlink:href="#aM"/><use transform="matrix(0.0728395061728395,0,0,0.0728395061728395,63.95308641975308,0)" xlink:href="#aK"/><use transform="matrix(0.0728395061728395,0,0,0.0728395061728395,78.52098765432098,0)" xlink:href="#aN"/><use transform="matrix(0.0728395061728395,0,0,0.0728395061728395,94.47283950617283,0)" xlink:href="#aO"/><use transform="matrix(0.0728395061728395,0,0,0.0728395061728395,109.04074074074072,0)" xlink:href="#aK"/></g><path fill="#a9afb8" d="M24-248c120-7 223 5 221 122C244-46 201 0 124 0H24v-248zM76-40c74 7 117-18 117-86 0-67-45-88-117-82v168" id="aP"/><path fill="#a9afb8" d="M25-224v-37h50v37H25zM25 0v-190h50V0H25" id="aQ"/><path fill="#a9afb8" d="M133-34C117-15 103 5 69 4 32 3 11-16 11-54c-1-60 55-63 116-61 1-26-3-47-28-47-18 1-26 9-28 27l-52-2c7-38 36-58 82-57s74 22 75 68l1 82c-1 14 12 18 25 15v27c-30 8-71 5-69-32zm-48 3c29 0 43-24 42-57-32 0-66-3-65 30 0 17 8 27 23 27" id="aR"/><path fill="#a9afb8" d="M195-6C206 82 75 100 31 46c-4-6-6-13-8-21l49-6c3 16 16 24 34 25 40 0 42-37 40-79-11 22-30 35-61 35-53 0-70-43-70-97 0-56 18-96 73-97 30 0 46 14 59 34l2-30h47zm-90-29c32 0 41-27 41-63 0-35-9-62-40-62-32 0-39 29-40 63 0 36 9 62 39 62" id="aS"/><path fill="#a9afb8" d="M135-150c-39-12-60 13-60 57V0H25l-1-190h47c2 13-1 29 3 40 6-28 27-53 61-41v41" id="aT"/><path fill="#a9afb8" d="M220-157c-53 9-28 100-34 157h-49v-107c1-27-5-49-29-50C55-147 81-57 75 0H25l-1-190h47c2 12-1 28 3 38 10-53 101-56 108 0 13-22 24-43 59-42 82 1 51 116 57 194h-49v-107c-1-25-5-48-29-50" id="aU"/><g id="s"><use transform="matrix(0.0728395061728395,0,0,0.0728395061728395,0,0)" xlink:href="#aP"/><use transform="matrix(0.0728395061728395,0,0,0.0728395061728395,18.86543209876543,0)" xlink:href="#aQ"/><use transform="matrix(0.0728395061728395,0,0,0.0728395061728395,26.14938271604938,0)" xlink:href="#aR"/><use transform="matrix(0.0728395061728395,0,0,0.0728395061728395,40.717283950617286,0)" xlink:href="#aS"/><use transform="matrix(0.0728395061728395,0,0,0.0728395061728395,56.66913580246913,0)" xlink:href="#aT"/><use transform="matrix(0.0728395061728395,0,0,0.0728395061728395,66.86666666666666,0)" xlink:href="#aR"/><use transform="matrix(0.0728395061728395,0,0,0.0728395061728395,81.43456790123457,0)" xlink:href="#aU"/></g><path fill="#a9afb8" d="M30 0v-248h187v28H63v79h144v27H63v87h162V0H30" id="aV"/><path fill="#a9afb8" d="M108 0H70L1-190h34L89-25l56-165h34" id="aW"/><path fill="#a9afb8" d="M24-231v-30h32v30H24zM24 0v-190h32V0H24" id="aX"/><path fill="#a9afb8" d="M24 0v-261h32V0H24" id="aY"/><path fill="#a9afb8" d="M266 0h-40l-56-210L115 0H75L2-248h35L96-30l15-64 43-154h32l59 218 59-218h35" id="aZ"/><path fill="#a9afb8" d="M100-194c63 0 86 42 84 106H49c0 40 14 67 53 68 26 1 43-12 49-29l28 8c-11 28-37 45-77 45C44 4 14-33 15-96c1-61 26-98 85-98zm52 81c6-60-76-77-97-28-3 7-6 17-6 28h103" id="ba"/><path fill="#a9afb8" d="M141-36C126-15 110 5 73 4 37 3 15-17 15-53c-1-64 63-63 125-63 3-35-9-54-41-54-24 1-41 7-42 31l-33-3c5-37 33-52 76-52 45 0 72 20 72 64v82c-1 20 7 32 28 27v20c-31 9-61-2-59-35zM48-53c0 20 12 33 32 33 41-3 63-29 60-74-43 2-92-5-92 41" id="bb"/><path fill="#a9afb8" d="M135-143c-3-34-86-38-87 0 15 53 115 12 119 90S17 21 10-45l28-5c4 36 97 45 98 0-10-56-113-15-118-90-4-57 82-63 122-42 12 7 21 19 24 35" id="bc"/><g id="t"><use transform="matrix(0.04248971193415638,0,0,0.04248971193415638,0,0)" xlink:href="#aV"/><use transform="matrix(0.04248971193415638,0,0,0.04248971193415638,10.19753086419753,0)" xlink:href="#aW"/><use transform="matrix(0.04248971193415638,0,0,0.04248971193415638,17.845679012345677,0)" xlink:href="#aX"/><use transform="matrix(0.04248971193415638,0,0,0.04248971193415638,21.20236625514403,0)" xlink:href="#aY"/><use transform="matrix(0.04248971193415638,0,0,0.04248971193415638,24.559053497942386,0)" xlink:href="#aZ"/><use transform="matrix(0.04248971193415638,0,0,0.04248971193415638,38.665637860082306,0)" xlink:href="#ba"/><use transform="matrix(0.04248971193415638,0,0,0.04248971193415638,47.163580246913575,0)" xlink:href="#bb"/><use transform="matrix(0.04248971193415638,0,0,0.04248971193415638,55.661522633744866,0)" xlink:href="#bc"/><use transform="matrix(0.04248971193415638,0,0,0.04248971193415638,63.309670781893004,0)" xlink:href="#ba"/><use transform="matrix(0.04248971193415638,0,0,0.04248971193415638,71.80761316872427,0)" xlink:href="#aY"/></g><path fill="#a9afb8" d="M32 76v-337h29V76H32" id="bd"/><use transform="matrix(0.04248971193415638,0,0,0.04248971193415638,0,0)" xlink:href="#bd" id="u"/><path fill="#a9afb8" d="M153-248C145-148 188 4 80 4 36 3 13-21 6-62l32-5c4 25 16 42 43 43 27 0 39-20 39-49v-147H72v-28h81" id="be"/><path fill="#a9afb8" d="M84 4C-5 8 30-112 23-190h32v120c0 31 7 50 39 49 72-2 45-101 50-169h31l1 190h-30c-1-10 1-25-2-33-11 22-28 36-60 37" id="bf"/><path fill="#a9afb8" d="M117-194c89-4 53 116 60 194h-32v-121c0-31-8-49-39-48C34-167 62-67 57 0H25l-1-190h30c1 10-1 24 2 32 11-22 29-35 61-36" id="bg"/><g id="v"><use transform="matrix(0.04248971193415638,0,0,0.04248971193415638,0,0)" xlink:href="#be"/><use transform="matrix(0.04248971193415638,0,0,0.04248971193415638,7.648148148148148,0)" xlink:href="#bf"/><use transform="matrix(0.04248971193415638,0,0,0.04248971193415638,16.14609053497942,0)" xlink:href="#bg"/><use transform="matrix(0.04248971193415638,0,0,0.04248971193415638,24.644032921810698,0)" xlink:href="#ba"/></g><path fill="#a9afb8" d="M101-251c82-7 93 87 43 132L82-64C71-53 59-42 53-27h129V0H18c2-99 128-94 128-182 0-28-16-43-45-43s-46 15-49 41l-32-3c6-41 34-60 81-64" id="bh"/><path fill="#a9afb8" d="M27 0v-27h64v-190l-56 39v-29l58-41h29v221h61V0H27" id="bi"/><path fill="#a9afb8" d="M68-38c1 34 0 65-14 84H32c9-13 17-26 17-46H33v-38h35" id="bj"/><g id="w"><use transform="matrix(0.04248971193415638,0,0,0.04248971193415638,0,0)" xlink:href="#bh"/><use transform="matrix(0.04248971193415638,0,0,0.04248971193415638,8.497942386831275,0)" xlink:href="#bi"/><use transform="matrix(0.04248971193415638,0,0,0.04248971193415638,16.99588477366255,0)" xlink:href="#bj"/></g><path fill="#a9afb8" d="M101-251c68 0 85 55 85 127S166 4 100 4C33 4 14-52 14-124c0-73 17-127 87-127zm-1 229c47 0 54-49 54-102s-4-102-53-102c-51 0-55 48-55 102 0 53 5 102 54 102" id="bk"/><g id="x"><use transform="matrix(0.04248971193415638,0,0,0.04248971193415638,0,0)" xlink:href="#bh"/><use transform="matrix(0.04248971193415638,0,0,0.04248971193415638,8.497942386831275,0)" xlink:href="#bk"/><use transform="matrix(0.04248971193415638,0,0,0.04248971193415638,16.99588477366255,0)" xlink:href="#bh"/><use transform="matrix(0.04248971193415638,0,0,0.04248971193415638,25.493827160493822,0)" xlink:href="#bh"/></g><path fill="#333" d="M219-77C219 17 104-2 11 0l48-248c73 2 169-15 169 57 0 38-24 54-60 60 29 5 51 21 51 54zm-26-111c0-44-62-31-105-33l-16 79c55 0 121 9 121-46zm-7 110c-1-49-69-36-119-38L50-27c61-1 137 12 136-51" id="bl"/><path fill="#333" d="M165-48c-4 18 1 34 23 27l-3 20c-29 8-62 0-52-35h-2C116-14 99 4 63 4 30 4 8-16 8-49c0-68 71-67 138-67 10-26 0-56-31-54-26 1-42 9-47 31l-32-5c8-67 160-71 144 15-5 28-9 54-15 81zM42-50c3 52 80 24 89-6 7-12 7-24 11-38-47 1-103-4-100 44" id="bm"/><path fill="#333" d="M67-158c22-48 132-52 116 29L158 0h-32l25-140c3-38-53-32-70-12C52-117 51-52 38 0H6l36-190h30" id="bn"/><path fill="#333" d="M127 0L80-88 50-66 37 0H6l51-261h31L57-100l99-90h39l-93 82L161 0h-34" id="bo"/><g id="y"><use transform="matrix(0.04938271604938272,0,0,0.04938271604938272,0,0)" xlink:href="#bl"/><use transform="matrix(0.04938271604938272,0,0,0.04938271604938272,11.851851851851853,0)" xlink:href="#bm"/><use transform="matrix(0.04938271604938272,0,0,0.04938271604938272,21.7283950617284,0)" xlink:href="#bn"/><use transform="matrix(0.04938271604938272,0,0,0.04938271604938272,31.60493827160494,0)" xlink:href="#bo"/><path fill="#333" d="M-.9 1.23h47.22v1.3H-.88z"/></g><path fill="#333" d="M194-120c59 52 2 134-86 124-53-6-90-18-98-63l31-7c8 30 29 43 70 43 46 0 84-17 71-62-32-43-135-20-137-98-3-89 178-90 191-16l-30 9c-8-48-127-53-127 5 0 53 81 35 115 65" id="bp"/><path fill="#333" d="M89 0H52L20-190h33L74-25l89-165h34" id="bq"/><g id="z"><use transform="matrix(0.04938271604938272,0,0,0.04938271604938272,0,0)" xlink:href="#bp"/><use transform="matrix(0.04938271604938272,0,0,0.04938271604938272,11.851851851851853,0)" xlink:href="#aE"/><use transform="matrix(0.04938271604938272,0,0,0.04938271604938272,21.7283950617284,0)" xlink:href="#aF"/><use transform="matrix(0.04938271604938272,0,0,0.04938271604938272,27.604938271604947,0)" xlink:href="#bq"/><use transform="matrix(0.04938271604938272,0,0,0.04938271604938272,36.49382716049384,0)" xlink:href="#aE"/><use transform="matrix(0.04938271604938272,0,0,0.04938271604938272,46.37037037037038,0)" xlink:href="#aF"/><path fill="#333" d="M-.9 1.23h54.03v1.3H-.9z"/></g><path fill="#333" d="M44-68c0 29 11 47 38 47 30 0 42-19 51-41l28 9C148-21 126 4 82 4 31 4 10-29 12-85c3-77 74-140 146-93 12 8 15 23 18 40l-31 5c-1-22-13-36-36-36-52 0-65 49-65 101" id="br"/><g id="A"><use transform="matrix(0.04938271604938272,0,0,0.04938271604938272,0,0)" xlink:href="#av"/><use transform="matrix(0.04938271604938272,0,0,0.04938271604938272,11.851851851851853,0)" xlink:href="#br"/><use transform="matrix(0.04938271604938272,0,0,0.04938271604938272,20.74074074074074,0)" xlink:href="#br"/><use transform="matrix(0.04938271604938272,0,0,0.04938271604938272,29.629629629629633,0)" xlink:href="#aC"/><use transform="matrix(0.04938271604938272,0,0,0.04938271604938272,39.50617283950618,0)" xlink:href="#az"/><use transform="matrix(0.04938271604938272,0,0,0.04938271604938272,49.38271604938272,0)" xlink:href="#bn"/><use transform="matrix(0.04938271604938272,0,0,0.04938271604938272,59.25925925925927,0)" xlink:href="#aB"/><path fill="#333" d="M-.9 1.23h66v1.3h-66z"/></g><g id="C"><use transform="matrix(0.05,0,0,0.05,0,0)" xlink:href="#as"/><use transform="matrix(0.05,0,0,0.05,5,0)" xlink:href="#ah"/><use transform="matrix(0.05,0,0,0.05,15,0)" xlink:href="#ap"/><use transform="matrix(0.05,0,0,0.05,24,0)" xlink:href="#af"/><use transform="matrix(0.05,0,0,0.05,34,0)" xlink:href="#ag"/><use transform="matrix(0.05,0,0,0.05,39.95,0)" xlink:href="#ae"/></g><path fill="#3a414a" d="M212-179c-10-28-35-45-73-45-59 0-87 40-87 99 0 60 29 101 89 101 43 0 62-24 78-52l27 14C228-24 195 4 139 4 59 4 22-46 18-125c-6-104 99-153 187-111 19 9 31 26 39 46" id="bs"/><g id="D"><use transform="matrix(0.05,0,0,0.05,0,0)" xlink:href="#bs"/><use transform="matrix(0.05,0,0,0.05,12.950000000000001,0)" xlink:href="#ai"/><use transform="matrix(0.05,0,0,0.05,22.950000000000003,0)" xlink:href="#ag"/><use transform="matrix(0.05,0,0,0.05,28.900000000000002,0)" xlink:href="#ao"/></g><path fill="#3a414a" d="M137 0h-34L2-248h35l83 218 83-218h36" id="bt"/><path fill="#3a414a" d="M179-190L93 31C79 59 56 82 12 73V49c39 6 53-20 64-50L1-190h34L92-34l54-156h33" id="bu"/><g id="E"><use transform="matrix(0.05,0,0,0.05,0,0)" xlink:href="#bt"/><use transform="matrix(0.05,0,0,0.05,11,0)" xlink:href="#af"/><use transform="matrix(0.05,0,0,0.05,21,0)" xlink:href="#ag"/><use transform="matrix(0.05,0,0,0.05,26.950000000000003,0)" xlink:href="#aj"/><use transform="matrix(0.05,0,0,0.05,30.899999999999995,0)" xlink:href="#am"/><use transform="matrix(0.05,0,0,0.05,35.9,0)" xlink:href="#bu"/></g><g id="F"><use transform="matrix(0.05,0,0,0.05,0,0)" xlink:href="#bs"/><use transform="matrix(0.05,0,0,0.05,12.950000000000001,0)" xlink:href="#ai"/><use transform="matrix(0.05,0,0,0.05,22.950000000000003,0)" xlink:href="#ag"/><use transform="matrix(0.05,0,0,0.05,28.900000000000002,0)" xlink:href="#ao"/></g><path fill="#3a414a" d="M140-251c81 0 123 46 123 126C263-46 219 4 140 4 59 4 17-45 17-125s42-126 123-126zm0 227c63 0 89-41 89-101s-29-99-89-99c-61 0-89 39-89 99S79-25 140-24" id="bv"/><path fill="#3a414a" d="M194 0L95-120 63-95V0H30v-248h33v124l119-124h40L117-140 236 0h-42" id="bw"/><g id="G"><use transform="matrix(0.05,0,0,0.05,0,0)" xlink:href="#bv"/><use transform="matrix(0.05,0,0,0.05,14,0)" xlink:href="#bw"/></g><path fill="#3a414a" d="M233-177c-1 41-23 64-60 70L243 0h-38l-65-103H63V0H30v-248c88 3 205-21 203 71zM63-129c60-2 137 13 137-47 0-61-80-42-137-45v92" id="bx"/><path fill="#3a414a" d="M145-31C134-9 116 4 85 4 32 4 16-35 15-94c0-59 17-99 70-100 32-1 48 14 60 33 0-11-1-24 2-32h30l-1 268h-32zM93-21c41 0 51-33 51-76s-8-73-50-73c-40 0-46 35-46 75s5 74 45 74" id="by"/><g id="H"><use transform="matrix(0.05,0,0,0.05,0,0)" xlink:href="#bx"/><use transform="matrix(0.05,0,0,0.05,12.950000000000001,0)" xlink:href="#af"/><use transform="matrix(0.05,0,0,0.05,22.950000000000003,0)" xlink:href="#by"/><use transform="matrix(0.05,0,0,0.05,32.95,0)" xlink:href="#au"/><use transform="matrix(0.05,0,0,0.05,42.95,0)" xlink:href="#af"/><use transform="matrix(0.05,0,0,0.05,52.95,0)" xlink:href="#ap"/><use transform="matrix(0.05,0,0,0.05,61.95,0)" xlink:href="#ae"/></g><g id="I"><use transform="matrix(0.05,0,0,0.05,0,0)" xlink:href="#ar"/><use transform="matrix(0.05,0,0,0.05,12,0)" xlink:href="#as"/><use transform="matrix(0.05,0,0,0.05,17,0)" xlink:href="#at"/></g><g id="J"><use transform="matrix(0.05,0,0,0.05,0,0)" xlink:href="#as"/><use transform="matrix(0.05,0,0,0.05,5,0)" xlink:href="#ah"/><use transform="matrix(0.05,0,0,0.05,15,0)" xlink:href="#ak"/><use transform="matrix(0.05,0,0,0.05,24,0)" xlink:href="#ai"/><use transform="matrix(0.05,0,0,0.05,34,0)" xlink:href="#ad"/><use transform="matrix(0.05,0,0,0.05,37.95,0)" xlink:href="#aj"/><use transform="matrix(0.05,0,0,0.05,41.900000000000006,0)" xlink:href="#ao"/></g><path fill="#3a414a" d="M30 0v-248h187v28H63v79h144v27H63v87h162V0H30" id="bz"/><path fill="#3a414a" d="M24-231v-30h32v30H24zM-9 49c24 4 33-6 33-30v-209h32V24c2 40-23 58-65 49V49" id="bA"/><g id="K"><use transform="matrix(0.05,0,0,0.05,0,0)" xlink:href="#bz"/><use transform="matrix(0.05,0,0,0.05,12,0)" xlink:href="#bA"/><use transform="matrix(0.05,0,0,0.05,15.949999999999998,0)" xlink:href="#af"/><use transform="matrix(0.05,0,0,0.05,25.950000000000003,0)" xlink:href="#an"/><use transform="matrix(0.05,0,0,0.05,34.95,0)" xlink:href="#ae"/></g><g id="L"><use transform="matrix(0.05,0,0,0.05,0,0)" xlink:href="#ar"/><use transform="matrix(0.05,0,0,0.05,12,0)" xlink:href="#as"/><use transform="matrix(0.05,0,0,0.05,17,0)" xlink:href="#at"/></g><g id="M"><use transform="matrix(0.05,0,0,0.05,0,0)" xlink:href="#bz"/><use transform="matrix(0.05,0,0,0.05,12,0)" xlink:href="#ah"/><use transform="matrix(0.05,0,0,0.05,22,0)" xlink:href="#ae"/><use transform="matrix(0.05,0,0,0.05,27,0)" xlink:href="#af"/><use transform="matrix(0.05,0,0,0.05,37,0)" xlink:href="#ag"/><use transform="matrix(0.05,0,0,0.05,42.95,0)" xlink:href="#af"/><use transform="matrix(0.05,0,0,0.05,52.95,0)" xlink:href="#ao"/></g><path fill="#3a414a" d="M210-169c-67 3-38 105-44 169h-31v-121c0-29-5-50-35-48C34-165 62-65 56 0H25l-1-190h30c1 10-1 24 2 32 10-44 99-50 107 0 11-21 27-35 58-36 85-2 47 119 55 194h-31v-121c0-29-5-49-35-48" id="bB"/><path fill="#3a414a" d="M100-194c62-1 85 37 85 99 1 63-27 99-86 99S16-35 15-95c0-66 28-99 85-99zM99-20c44 1 53-31 53-75 0-43-8-75-51-75s-53 32-53 75 10 74 51 75" id="bC"/><g id="N"><use transform="matrix(0.05,0,0,0.05,0,0)" xlink:href="#ac"/><use transform="matrix(0.05,0,0,0.05,12,0)" xlink:href="#bB"/><use transform="matrix(0.05,0,0,0.05,26.950000000000003,0)" xlink:href="#bC"/><use transform="matrix(0.05,0,0,0.05,36.95,0)" xlink:href="#au"/><use transform="matrix(0.05,0,0,0.05,46.95,0)" xlink:href="#ah"/><use transform="matrix(0.05,0,0,0.05,56.95,0)" xlink:href="#ae"/></g><path fill="#3a414a" d="M185-189c-5-48-123-54-124 2 14 75 158 14 163 119 3 78-121 87-175 55-17-10-28-26-33-46l33-7c5 56 141 63 141-1 0-78-155-14-162-118-5-82 145-84 179-34 5 7 8 16 11 25" id="bD"/><g id="O"><use transform="matrix(0.05,0,0,0.05,0,0)" xlink:href="#bD"/><use transform="matrix(0.05,0,0,0.05,12,0)" xlink:href="#ae"/><use transform="matrix(0.05,0,0,0.05,17,0)" xlink:href="#ai"/><use transform="matrix(0.05,0,0,0.05,27,0)" xlink:href="#ag"/><use transform="matrix(0.05,0,0,0.05,32.95,0)" xlink:href="#ae"/></g><path fill="#3a414a" d="M127-220V0H93v-220H8v-28h204v28h-85" id="bE"/><g id="P"><use transform="matrix(0.05,0,0,0.05,0,0)" xlink:href="#bE"/><use transform="matrix(0.05,0,0,0.05,10.3,0)" xlink:href="#ag"/><use transform="matrix(0.05,0,0,0.05,16.25,0)" xlink:href="#ai"/><use transform="matrix(0.05,0,0,0.05,26.25,0)" xlink:href="#ah"/><use transform="matrix(0.05,0,0,0.05,36.25,0)" xlink:href="#ap"/><use transform="matrix(0.05,0,0,0.05,45.25,0)" xlink:href="#ai"/><use transform="matrix(0.05,0,0,0.05,55.25,0)" xlink:href="#an"/><use transform="matrix(0.05,0,0,0.05,64.25,0)" xlink:href="#ae"/><use transform="matrix(0.05,0,0,0.05,69.25,0)" xlink:href="#aj"/><use transform="matrix(0.05,0,0,0.05,73.2,0)" xlink:href="#bC"/><use transform="matrix(0.05,0,0,0.05,83.2,0)" xlink:href="#ah"/></g><g id="Q"><use transform="matrix(0.05,0,0,0.05,0,0)" xlink:href="#bD"/><use transform="matrix(0.05,0,0,0.05,12,0)" xlink:href="#au"/><use transform="matrix(0.05,0,0,0.05,22,0)" xlink:href="#am"/><use transform="matrix(0.05,0,0,0.05,26.649999999999995,0)" xlink:href="#am"/><use transform="matrix(0.05,0,0,0.05,31.649999999999995,0)" xlink:href="#aj"/><use transform="matrix(0.05,0,0,0.05,35.6,0)" xlink:href="#an"/><use transform="matrix(0.05,0,0,0.05,44.6,0)" xlink:href="#aj"/><use transform="matrix(0.05,0,0,0.05,48.550000000000004,0)" xlink:href="#af"/><use transform="matrix(0.05,0,0,0.05,58.550000000000004,0)" xlink:href="#ah"/><use transform="matrix(0.05,0,0,0.05,68.55000000000001,0)" xlink:href="#ae"/></g><path fill="#3a414a" d="M63-220v92h138v28H63V0H30v-248h175v28H63" id="bF"/><path fill="#3a414a" d="M103-251c84 0 111 97 45 133-19 10-37 24-39 52H78c0-63 77-55 77-114 0-30-21-42-52-43-32 0-53 17-56 46l-32-2c7-45 34-72 88-72zM77 0v-35h34V0H77" id="bG"/><g id="R"><use transform="matrix(0.05,0,0,0.05,0,0)" xlink:href="#bF"/><use transform="matrix(0.05,0,0,0.05,10.950000000000001,0)" xlink:href="#au"/><use transform="matrix(0.05,0,0,0.05,20.950000000000003,0)" xlink:href="#ah"/><use transform="matrix(0.05,0,0,0.05,30.950000000000003,0)" xlink:href="#ao"/><use transform="matrix(0.05,0,0,0.05,40.95,0)" xlink:href="#ap"/><use transform="matrix(0.05,0,0,0.05,49.95,0)" xlink:href="#bG"/></g><g id="S"><use transform="matrix(0.05,0,0,0.05,0,0)" xlink:href="#bE"/><use transform="matrix(0.05,0,0,0.05,10.3,0)" xlink:href="#ag"/><use transform="matrix(0.05,0,0,0.05,16.25,0)" xlink:href="#ai"/><use transform="matrix(0.05,0,0,0.05,26.25,0)" xlink:href="#ah"/><use transform="matrix(0.05,0,0,0.05,36.25,0)" xlink:href="#ap"/><use transform="matrix(0.05,0,0,0.05,45.25,0)" xlink:href="#ai"/><use transform="matrix(0.05,0,0,0.05,55.25,0)" xlink:href="#an"/><use transform="matrix(0.05,0,0,0.05,64.25,0)" xlink:href="#ae"/><use transform="matrix(0.05,0,0,0.05,69.25,0)" xlink:href="#aj"/><use transform="matrix(0.05,0,0,0.05,73.2,0)" xlink:href="#bC"/><use transform="matrix(0.05,0,0,0.05,83.2,0)" xlink:href="#ah"/></g><g id="T"><use transform="matrix(0.05,0,0,0.05,0,0)" xlink:href="#bD"/><use transform="matrix(0.05,0,0,0.05,12,0)" xlink:href="#au"/><use transform="matrix(0.05,0,0,0.05,22,0)" xlink:href="#an"/><use transform="matrix(0.05,0,0,0.05,31,0)" xlink:href="#an"/><use transform="matrix(0.05,0,0,0.05,40,0)" xlink:href="#af"/><use transform="matrix(0.05,0,0,0.05,50,0)" xlink:href="#ap"/><use transform="matrix(0.05,0,0,0.05,59,0)" xlink:href="#ap"/><use transform="matrix(0.05,0,0,0.05,68,0)" xlink:href="#am"/><use transform="matrix(0.05,0,0,0.05,73,0)" xlink:href="#au"/><use transform="matrix(0.05,0,0,0.05,83,0)" xlink:href="#ad"/></g><g id="U"><use transform="matrix(0.05,0,0,0.05,0,0)" xlink:href="#ac"/><use transform="matrix(0.05,0,0,0.05,12,0)" xlink:href="#bB"/><use transform="matrix(0.05,0,0,0.05,26.950000000000003,0)" xlink:href="#bC"/><use transform="matrix(0.05,0,0,0.05,36.95,0)" xlink:href="#au"/><use transform="matrix(0.05,0,0,0.05,46.95,0)" xlink:href="#ah"/><use transform="matrix(0.05,0,0,0.05,56.95,0)" xlink:href="#ae"/></g><path fill="#3a414a" d="M30-248c118-7 216 8 213 122C240-48 200 0 122 0H30v-248zM63-27c89 8 146-16 146-99s-60-101-146-95v194" id="bH"/><path fill="#3a414a" d="M115-194c55 1 70 41 70 98S169 2 115 4C84 4 66-9 55-30l1 105H24l-1-265h31l2 30c10-21 28-34 59-34zm-8 174c40 0 45-34 45-75s-6-73-45-74c-42 0-51 32-51 76 0 43 10 73 51 73" id="bI"/><g id="V"><use transform="matrix(0.05,0,0,0.05,0,0)" xlink:href="#bH"/><use transform="matrix(0.05,0,0,0.05,12.950000000000001,0)" xlink:href="#aj"/><use transform="matrix(0.05,0,0,0.05,16.900000000000002,0)" xlink:href="#ap"/><use transform="matrix(0.05,0,0,0.05,25.900000000000002,0)" xlink:href="#bI"/><use transform="matrix(0.05,0,0,0.05,35.900000000000006,0)" xlink:href="#af"/><use transform="matrix(0.05,0,0,0.05,45.900000000000006,0)" xlink:href="#ah"/><use transform="matrix(0.05,0,0,0.05,55.900000000000006,0)" xlink:href="#ap"/><use transform="matrix(0.05,0,0,0.05,64.9,0)" xlink:href="#af"/></g><path fill="#3a414a" d="M106-169C34-169 62-67 57 0H25v-261h32l-1 103c12-21 28-36 61-36 89 0 53 116 60 194h-32v-121c2-32-8-49-39-48" id="bJ"/><g id="W"><use transform="matrix(0.05,0,0,0.05,0,0)" xlink:href="#bs"/><use transform="matrix(0.05,0,0,0.05,12.950000000000001,0)" xlink:href="#ai"/><use transform="matrix(0.05,0,0,0.05,22.950000000000003,0)" xlink:href="#ap"/><use transform="matrix(0.05,0,0,0.05,31.950000000000003,0)" xlink:href="#bJ"/></g><g id="X"><use transform="matrix(0.05,0,0,0.05,0,0)" xlink:href="#bF"/><use transform="matrix(0.05,0,0,0.05,10.950000000000001,0)" xlink:href="#au"/><use transform="matrix(0.05,0,0,0.05,20.950000000000003,0)" xlink:href="#ah"/><use transform="matrix(0.05,0,0,0.05,30.950000000000003,0)" xlink:href="#ao"/><use transform="matrix(0.05,0,0,0.05,40.95,0)" xlink:href="#ap"/></g><path fill="#3a414a" d="M266 0h-40l-56-210L115 0H75L2-248h35L96-30l15-64 43-154h32l59 218 59-218h35" id="bK"/><path fill="#3a414a" d="M206 0h-36l-40-164L89 0H53L-1-190h32L70-26l43-164h34l41 164 42-164h31" id="bL"/><g id="Y"><use transform="matrix(0.05,0,0,0.05,0,0)" xlink:href="#bK"/><use transform="matrix(0.05,0,0,0.05,16.95,0)" xlink:href="#aj"/><use transform="matrix(0.05,0,0,0.05,20.9,0)" xlink:href="#ae"/><use transform="matrix(0.05,0,0,0.05,25.899999999999995,0)" xlink:href="#bJ"/><use transform="matrix(0.05,0,0,0.05,35.9,0)" xlink:href="#ao"/><use transform="matrix(0.05,0,0,0.05,45.9,0)" xlink:href="#ag"/><use transform="matrix(0.05,0,0,0.05,51.85,0)" xlink:href="#ai"/><use transform="matrix(0.05,0,0,0.05,61.85,0)" xlink:href="#bL"/></g><g id="Z"><use transform="matrix(0.05,0,0,0.05,0,0)" xlink:href="#as"/><use transform="matrix(0.05,0,0,0.05,5,0)" xlink:href="#ah"/><use transform="matrix(0.05,0,0,0.05,15,0)" xlink:href="#ap"/><use transform="matrix(0.05,0,0,0.05,24,0)" xlink:href="#au"/><use transform="matrix(0.05,0,0,0.05,34,0)" xlink:href="#am"/><use transform="matrix(0.05,0,0,0.05,38.65,0)" xlink:href="#am"/><use transform="matrix(0.05,0,0,0.05,43.65,0)" xlink:href="#aj"/><use transform="matrix(0.05,0,0,0.05,47.6,0)" xlink:href="#an"/><use transform="matrix(0.05,0,0,0.05,56.6,0)" xlink:href="#aj"/><use transform="matrix(0.05,0,0,0.05,60.550000000000004,0)" xlink:href="#af"/><use transform="matrix(0.05,0,0,0.05,70.55000000000001,0)" xlink:href="#ah"/><use transform="matrix(0.05,0,0,0.05,80.55000000000001,0)" xlink:href="#ae"/></g><g id="aa"><use transform="matrix(0.05,0,0,0.05,0,0)" xlink:href="#bF"/><use transform="matrix(0.05,0,0,0.05,10.950000000000001,0)" xlink:href="#au"/><use transform="matrix(0.05,0,0,0.05,20.950000000000003,0)" xlink:href="#ah"/><use transform="matrix(0.05,0,0,0.05,30.950000000000003,0)" xlink:href="#ao"/><use transform="matrix(0.05,0,0,0.05,40.95,0)" xlink:href="#ap"/></g><path fill="#3a414a" d="M232-93c-1 65-40 97-104 97C67 4 28-28 28-90v-158h33c8 89-33 224 67 224 102 0 64-133 71-224h33v155" id="bM"/><g id="ab"><use transform="matrix(0.05,0,0,0.05,0,0)" xlink:href="#bM"/><use transform="matrix(0.05,0,0,0.05,12.950000000000001,0)" xlink:href="#ah"/><use transform="matrix(0.05,0,0,0.05,22.950000000000003,0)" xlink:href="#ap"/><use transform="matrix(0.05,0,0,0.05,31.950000000000003,0)" xlink:href="#au"/><use transform="matrix(0.05,0,0,0.05,41.95,0)" xlink:href="#an"/><use transform="matrix(0.05,0,0,0.05,50.95,0)" xlink:href="#an"/><use transform="matrix(0.05,0,0,0.05,59.95,0)" xlink:href="#af"/><use transform="matrix(0.05,0,0,0.05,69.95,0)" xlink:href="#ap"/><use transform="matrix(0.05,0,0,0.05,78.95,0)" xlink:href="#ap"/><use transform="matrix(0.05,0,0,0.05,87.95,0)" xlink:href="#am"/><use transform="matrix(0.05,0,0,0.05,92.95,0)" xlink:href="#au"/><use transform="matrix(0.05,0,0,0.05,102.95,0)" xlink:href="#ad"/></g></defs></g></svg>